# AST/ASF file generated using VICON BodyLanguage
# -----------------------------------------------
:version 1.10
:name VICON
:units
  mass 1.0
  length 0.45
  angle deg
:documentation
   .ast/.asf automatically generated from VICON data using
   VICON BodyBuilder and BodyLanguage model FoxedUp or BRILLIANT.MOD
:root
   order TX TY TZ RX RY RZ
   axis XYZ
   position 0 0 0  
   orientation 0 0 0 
:bonedata
  begin
     id 1 
     name lhipjoint
     direction 0.578396 -0.714046 0.394458 
     length 2.21935 
     axis 0 0 0  XYZ
  end
  begin
     id 2 
     name lfemur
     direction 0.34202 -0.939693 0  
     length 6.39105  
     axis 0 0 20  XYZ
    dof rx ry rz
    limits (-160.0 20.0)
           (-70.0 70.0)
           (-60.0 70.0)
  end
  begin
     id 3 
     name ltibia
     direction 0.34202 -0.939693 0   
     length 6.99037   
     axis 0 0 20   XYZ
    dof rx
    limits (-10.0 170.0)
  end
  begin
     id 4 
     name lfoot
     direction 0.0582372 -0.160005 0.985397   
     length 2.06111   
     axis -90 7.62852e-016 20   XYZ
    dof rx rz
    limits (-45.0 90.0)
           (-70.0 20.0)
  end
  begin
     id 5 
     name ltoes
     direction 1.53556e-011 -4.21875e-011 1   
     length 1.04074   
     axis -90 7.62852e-016 20   XYZ
    dof rx
    limits (-90.0 20.0)
  end
  begin
     id 6 
     name rhipjoint
     direction -0.558179 -0.726269 0.40121   
     length 2.182  
     axis 0 0 0  XYZ 
  end
  begin
     id 7 
     name rfemur
     direction -0.34202 -0.939693 0   
     length 6.51172   
     axis 0 0 -20   XYZ
    dof rx ry rz
    limits (-160.0 20.0)
           (-70.0 70.0)
           (-70.0 60.0)
  end
  begin
     id 8 
     name rtibia
     direction -0.34202 -0.939693 0   
     length 7.02607   
     axis 0 0 -20   XYZ
    dof rx
    limits (-10.0 170.0)
 end
 begin
     id 9 
     name rfoot
     direction -0.0788856 -0.216737 0.973038   
     length 1.96734  
     axis -90 -7.62852e-016 -20   XYZ
    dof rx rz
    limits (-45.0 90.0)
           (-20.0 70.0)
  end
  begin
     id 10 
     name rtoes
     direction -1.53567e-011 -4.21783e-011 1   
     length 0.990825   
     axis -90 -7.62852e-016 -20   XYZ
    dof rx
    limits (-90.0 20.0)
  end
  begin
     id 11 
     name lowerback
     direction 0.00668177 0.999323 -0.0361741   
     length 1.7655   
     axis 0 0 0   XYZ
    dof rx ry rz
    limits (-20.0 45.0)
           (-30.0 30.0)
           (-30.0 30.0)
  end
  begin
     id 12 
     name upperback
     direction -0.00222086 0.99851 0.0545167   
     length 1.74912   
     axis 0 0 0   XYZ
    dof rx ry rz
    limits (-20.0 45.0)
           (-30.0 30.0)
           (-30.0 30.0)
  end
  begin
     id 13 
     name thorax
     direction -0.00733971 0.997496 0.0703443   
     length 1.75715   
     axis 0 0 0   XYZ
    dof rx ry rz
    limits (-20.0 45.0)
           (-30.0 30.0)
           (-30.0 30.0)
  end
  begin
     id 14 
     name lowerneck
     direction 0.0279797 0.994795 0.0979765   
     length 1.46939   
     axis 0 0 0   XYZ
    dof rx ry rz
    limits (-20.0 45.0)
           (-30.0 30.0)
           (-30.0 30.0)
  end
  begin
     id 15 
     name upperneck
     direction 0.00339187 0.976776 -0.214238   
     length 1.48018   
     axis 0 0 0   XYZ
    dof rx ry rz
    limits (-20.0 45.0)
           (-30.0 30.0)
           (-30.0 30.0)
  end
  begin
     id 16
     name head
     direction -0.00263506 0.996603 -0.0823096  
     length 1.4976  
     axis 0 0 0   XYZ
    dof rx ry rz
    limits (-20.0 45.0)
           (-30.0 30.0)
           (-30.0 30.0)
  end
  begin
     id 17 
     name lclavicle
     direction 0.894044 0.44508 -0.0508781  
     length 3.03024  
     axis 0 0 0   XYZ
    dof ry rz
    limits (-20.0 10.0)
           (0.0 20.0)
  end
  begin
     id 18 
     name lhumerus
     direction 1 -4.48961e-011 -2.39475e-018   
     length 4.4661   
     axis 180 -30 -90   XYZ
    dof rx ry rz
    limits (-60.0 90.0)
           (-90.0 90.0)
           (-90.0 90.0)
  end
  begin
     id 19
     name lradius
     direction 1 -4.48961e-011 9.29328e-028   
     length 3.41414   
     axis 180 -30 -90   XYZ
    dof rx
    limits (-10.0 170.0)
  end
  begin
     id 20
     name lwrist
     direction 1 -4.48985e-011 1.53461e-026   
     length 1.70707   
     axis -1.09697e-014 90 90   XYZ
    dof ry
    limits (-180.0 0.0)
 end
  begin
     id 21 
     name lhand
     direction 1 -4.48966e-011 3.06923e-026   
     length 0.328298   
     axis -1.95843e-014 90 90   XYZ
    dof rx rz
    limits (-90.0 90.0)
           (-45.0 45.0)
  end
  begin
     id 22 
     name lfingers
     direction 1 -4.48893e-011 6.13845e-026   
     length 0.264682   
     axis -3.91686e-014 90 90   XYZ
    dof rx
    limits (0.0 90.0)
  end
  begin
     id 23
     name lthumb
     direction 0.707107 -6.34876e-011 0.707107   
     length 0.380032   
     axis -90 45 2.85299e-015   XYZ
    dof rx rz
    limits (-45.0 45.0)
           (-45.0 45.0)
  end
  begin
     id 24 
     name rclavicle
     direction -0.936955 0.347862 -0.0332887   
     length 3.26927  
     axis 0 0 0   XYZ 
    dof ry rz
    limits (-10.0 20.0)
           (-20.0 0.0)
  end
  begin
     id 25 
     name rhumerus
     direction -1 -4.4896e-011 1.78637e-018  
     length 4.40431   
     axis 180 30 90   XYZ
    dof rx ry rz
    limits (-90.0 60.0)
           (-90.0 90.0)
           (-90.0 90.0)
  end
  begin
     id 26 
     name rradius
     direction -1 -4.48955e-011 9.34036e-027   
     length 3.04688   
     axis 180 30 90   XYZ
    dof rx
    limits (-10.0 170.0)
  end
  begin
     id 27 
     name rwrist
     direction -1 -4.49011e-011 1.53461e-026   
     length 1.52344   
     axis -1.09697e-014 -90 -90   XYZ
    dof ry
    limits (-180.0 0.0)
  end
  begin
     id 28
     name rhand
     direction -1 -4.48834e-011 3.06923e-026   
     length 0.500489   
     axis -1.95843e-014 -90 -90   XYZ
    dof rx rz
    limits (-90.0 90.0)
           (-45.0 45.0)
  end
  begin
     id 29
     name rfingers
     direction -1 -4.48967e-011 6.13845e-026   
     length 0.403507   
     axis -3.91686e-014 -90 -90   XYZ
    dof rx
    limits (0.0 90.0)
  end
  begin
     id 30
     name rthumb
     direction -0.707107 -6.34826e-011 0.707107   
     length 0.579358   
     axis -90 -45 -2.85299e-015   XYZ
    dof rx rz
    limits (-45.0 45.0)
           (-45.0 45.0)
  end
:hierarchy
  begin
    root lhipjoint rhipjoint lowerback
    lhipjoint lfemur
    lfemur ltibia
    ltibia lfoot
    lfoot ltoes
    rhipjoint rfemur
    rfemur rtibia
    rtibia rfoot
    rfoot rtoes
    lowerback upperback
    upperback thorax
    thorax lowerneck lclavicle rclavicle
    lowerneck upperneck
    upperneck head
    lclavicle lhumerus
    lhumerus lradius
    lradius lwrist
    lwrist lhand lthumb
    lhand lfingers
    rclavicle rhumerus
    rhumerus rradius
    rradius rwrist
    rwrist rhand rthumb
    rhand rfingers
  end

#!OML:ASF H:\IndianDance\Patient Classification 1\Patient 1\Session 1\dancer.ASF
:FULLY-SPECIFIED
:DEGREES
621
root 3.32537 14.3028 5.03378 -171.22 5.52903 -167.821
lowerback 9.76333 -0.346408 -4.41414
upperback -5.54689 0.138378 7.17992
thorax -11.6479 1.01514 10.4777
lowerneck -12.2082 -14.0875 -7.56506
upperneck 13.2072 -19.939 14.8387
head 8.42068 -8.43836 3.6303
rclavicle 2.45584e-014 -3.39922e-014
rhumerus 3.25505 -37.4801 -39.7811
rradius 25.8955
rwrist 17.6014
rhand -45.3704 60.6978
rfingers 7.12502
rthumb -18.1401 31.5237
lclavicle 2.45584e-014 -3.39922e-014
lhumerus -51.4578 -65.5268 94.7203
lradius 97.0801
lwrist 83.1838
lhand 18.0985 18.8336
lfingers 7.12502
lthumb 42.7598 43.1639
rfemur -57.778 -29.6633 31.9537
rtibia 51.9311
rfoot -17.5723 -16.1805
rtoes 10.7077
lfemur -40.4933 26.1989 -15.0973
ltibia 64.9106
lfoot -29.4133 12.3129
ltoes 14.4208
622
root 3.33216 14.3384 5.01908 -171.123 5.54054 -167.916
lowerback 9.50909 -0.361252 -4.82923
upperback -5.52189 0.0266098 7.08098
thorax -11.4438 0.967857 10.6209
lowerneck -12.1165 -14.1483 -7.69933
upperneck 13.3918 -20.075 15.1756
head 8.53822 -8.46021 3.73864
rclavicle 3.24062e-014 -1.03766e-013
rhumerus 2.91432 -37.992 -40.6528
rradius 25.7282
rwrist 17.4269
rhand -45.3742 60.7775
rfingers 7.12502
rthumb -18.1437 31.6038
lclavicle 3.24062e-014 -1.03766e-013
lhumerus -51.6381 -65.5543 94.9123
lradius 97.125
lwrist 83.1587
lhand 18.0386 18.8716
lfingers 7.12502
lthumb 42.7037 43.2214
rfemur -57.2204 -29.4765 32.1457
rtibia 49.7424
rfoot -17.9348 -16.6031
rtoes 10.5186
lfemur -40.2587 26.3615 -15.2055
ltibia 64.3414
lfoot -29.1549 12.1856
ltoes 14.1292
623
root 3.34064 14.375 5.00332 -171.024 5.55134 -168.013
lowerback 9.24374 -0.379168 -5.23411
upperback -5.50691 -0.0854752 6.96805
thorax -11.2437 0.918571 10.7412
lowerneck -12.018 -14.2068 -7.83297
upperneck 13.5905 -20.2118 15.5236
head 8.662 -8.47953 3.85142
rclavicle -2.04651e-014 9.81499e-015
rhumerus 2.47789 -38.3339 -41.4589
rradius 25.6154
rwrist 17.1754
rhand -45.405 61.0655
rfingers 7.12502
rthumb -18.1733 31.8945
lclavicle -2.04651e-014 9.81499e-015
lhumerus -51.8699 -65.5979 95.1245
lradius 97.1802
lwrist 83.126
lhand 18.045 18.9212
lfingers 7.12502
lthumb 42.7097 43.2689
rfemur -56.5919 -29.2705 32.3278
rtibia 47.5505
rfoot -18.2612 -17.0474
rtoes 10.2721
lfemur -40.0126 26.5388 -15.3073
ltibia 63.7549
lfoot -28.8767 12.054
ltoes 13.7994
624
root 3.35079 14.4121 4.98653 -170.926 5.56416 -168.112
lowerback 8.96974 -0.401123 -5.63032
upperback -5.49938 -0.199312 6.84251
thorax -11.0458 0.866736 10.8413
lowerneck -11.9074 -14.2583 -7.95886
upperneck 13.7925 -20.3411 15.8724
head 8.78439 -8.49425 3.9664
rclavicle 8.96569e-016 -5.643e-014
rhumerus 1.96466 -38.5128 -42.2091
rradius 25.5422
rwrist 16.8571
rhand -45.463 61.4831
rfingers 7.12502
rthumb -18.2291 32.3173
lclavicle 8.96569e-016 -5.643e-014
lhumerus -52.1541 -65.649 95.354
lradius 97.2464
lwrist 83.0922
lhand 18.0295 18.9411
lfingers 7.12502
lthumb 42.6952 43.2938
rfemur -55.8912 -29.0428 32.4951
rtibia 45.3693
rfoot -18.574 -17.5122
rtoes 10.0863
lfemur -39.7515 26.7341 -15.4025
ltibia 63.1525
lfoot -28.581 11.9109
ltoes 13.4409
625
root 3.36261 14.4499 4.96865 -170.839 5.57922 -168.215
lowerback 8.6921 -0.425056 -6.0159
upperback -5.49464 -0.312124 6.70472
thorax -10.8486 0.813339 10.9201
lowerneck -11.7877 -14.3041 -8.07634
upperneck 13.9968 -20.4637 16.2132
head 8.90444 -8.50582 4.08032
rclavicle -2.21831e-014 4.76089e-014
rhumerus 1.38975 -38.5533 -42.9083
rradius 25.4884
rwrist 16.5024
rhand -45.5436 61.9979
rfingers 7.12502
rthumb -18.3067 32.8393
lclavicle -2.21831e-014 4.76089e-014
lhumerus -52.4788 -65.7065 95.5929
lradius 97.3188
lwrist 83.0489
lhand 18.0222 18.9631
lfingers 7.12502
lthumb 42.6883 43.3182
rfemur -55.1056 -28.786 32.6308
rtibia 43.2138
rfoot -18.8541 -18.0312
rtoes 9.83784
lfemur -39.4652 26.95 -15.4872
ltibia 62.5353
lfoot -28.267 11.7525
ltoes 13.0525
